<svg width="180" height="168" viewBox="0 0 180 168" fill="none" xmlns="http://www.w3.org/2000/svg">
<g clip-path="url(#clip0_1_12)">
<path d="M137.162 39.9232H136.238V14.6357C136.238 10.7541 134.695 7.03145 131.948 4.28671C129.202 1.54198 125.477 0 121.592 0H67.9827C64.0985 0 60.3733 1.54198 57.6267 4.28671C54.8801 7.03145 53.3371 10.7541 53.3371 14.6357V153.364C53.3371 157.246 54.8801 160.969 57.6267 163.713C60.3733 166.458 64.0985 168 67.9827 168H121.593C125.478 168 129.203 166.458 131.949 163.713C134.696 160.969 136.239 157.246 136.239 153.364V57.9231H137.162V39.9232Z" fill="#3F3D56"/>
<path d="M133.253 13.6564V154.344C133.253 157.287 132.083 160.11 130.001 162.191C127.918 164.272 125.094 165.442 122.149 165.443H67.4371C64.4909 165.443 61.6652 164.274 59.5816 162.192C57.498 160.111 56.3272 157.287 56.3266 154.343V13.6564C56.3275 10.7124 57.4985 7.88933 59.5821 5.80804C61.6656 3.72676 64.4911 2.55773 67.4371 2.55806H74.0739C73.748 3.35892 73.624 4.22751 73.7127 5.08749C73.8014 5.94747 74.1002 6.7725 74.5827 7.49007C75.0653 8.20764 75.7168 8.79578 76.48 9.20279C77.2433 9.6098 78.0949 9.82322 78.96 9.82429H110.152C111.017 9.82312 111.869 9.60959 112.632 9.20245C113.395 8.79532 114.047 8.20706 114.529 7.48938C115.011 6.7717 115.31 5.94658 115.399 5.08655C115.487 4.22652 115.363 3.3579 115.037 2.55707H122.146C125.091 2.55759 127.915 3.72674 129.998 5.80749C132.08 7.88824 133.251 10.7103 133.252 13.6532L133.253 13.6564Z" fill="#E6E6E6"/>
<path d="M127.424 158.099H62.1561C61.599 158.098 61.0649 157.877 60.6709 157.483C60.277 157.09 60.0554 156.556 60.0547 155.999V18.8816C60.0554 18.3249 60.277 17.7911 60.6709 17.3974C61.0649 17.0037 61.599 16.7822 62.1561 16.7816H127.424C127.981 16.7822 128.515 17.0037 128.909 17.3974C129.303 17.7911 129.524 18.3249 129.525 18.8816V155.999C129.524 156.556 129.303 157.09 128.909 157.483C128.515 157.877 127.981 158.098 127.424 158.099Z" fill="white"/>
<path d="M94.5426 63.0757C104.474 63.0757 112.525 55.0302 112.525 45.1056C112.525 35.1811 104.474 27.1356 94.5426 27.1356C84.6113 27.1356 76.5604 35.1811 76.5604 45.1056C76.5604 55.0302 84.6113 63.0757 94.5426 63.0757Z" fill="#E6E6E6"/>
<path d="M94.2954 60.6429C102.882 60.6429 109.843 53.6866 109.843 45.1056C109.843 36.5246 102.882 29.5684 94.2954 29.5684C85.7086 29.5684 78.7477 36.5246 78.7477 45.1056C78.7477 53.6866 85.7086 60.6429 94.2954 60.6429Z" fill="white"/>
<path d="M94.6415 36.2931C92.8883 36.2931 91.1744 36.8126 89.7166 37.786C88.2589 38.7594 87.1227 40.1429 86.4518 41.7616C85.7808 43.3803 85.6053 45.1614 85.9473 46.8798C86.2894 48.5982 87.1336 50.1766 88.3733 51.4155C89.6131 52.6544 91.1926 53.4981 92.9121 53.8399C94.6316 54.1817 96.414 54.0063 98.0338 53.3358C99.6536 52.6653 101.038 51.5299 102.012 50.0731C102.986 48.6163 103.506 46.9036 103.506 45.1516C103.506 42.8022 102.572 40.549 100.91 38.8877C99.2472 37.2264 96.9925 36.2931 94.6415 36.2931ZM94.6415 38.9507C95.1675 38.9507 95.6816 39.1065 96.119 39.3986C96.5563 39.6906 96.8972 40.1056 97.0984 40.5912C97.2997 41.0769 97.3524 41.6112 97.2498 42.1267C97.1472 42.6423 96.8939 43.1158 96.522 43.4875C96.15 43.8592 95.6762 44.1123 95.1603 44.2148C94.6444 44.3174 94.1097 44.2647 93.6238 44.0636C93.1378 43.8624 92.7225 43.5218 92.4303 43.0848C92.1381 42.6477 91.9821 42.1339 91.9821 41.6083C91.9821 41.2593 92.0509 40.9137 92.1845 40.5912C92.3182 40.2688 92.5141 39.9758 92.761 39.7291C93.0079 39.4823 93.3011 39.2865 93.6238 39.153C93.9464 39.0194 94.2922 38.9507 94.6415 38.9507ZM94.6415 51.7443C93.5909 51.7396 92.5574 51.4787 91.6305 50.9844C90.7037 50.4901 89.9115 49.7773 89.3227 48.9079C89.3652 47.1362 92.8684 46.1608 94.6415 46.1608C96.4146 46.1608 99.9175 47.1362 99.9603 48.9079C99.3709 49.7768 98.5786 50.4893 97.6519 50.9836C96.7252 51.478 95.6919 51.7393 94.6415 51.7451V51.7443Z" fill="#63E1FF"/>
<path d="M109.383 69.1145H78.2727V71.4512H109.383V69.1145Z" fill="#E6E6E6"/>
<path d="M113.263 75.1865H74.1102V77.5232H113.263V75.1865Z" fill="#E6E6E6"/>
<path d="M122.367 92.6278H67.2126V147.745H122.367V92.6278Z" fill="#E6E6E6"/>
<path d="M120.91 93.7939H68.0895V146.579H120.91V93.7939Z" fill="white"/>
<path d="M99.5287 98.8893H78.9674V100.434H99.5287V98.8893Z" fill="#E6E6E6"/>
<path d="M110.718 103.423H78.9674V104.968H110.718V103.423Z" fill="#63E1FF"/>
<path d="M105.174 107.741H79.2975V109.285H105.174V107.741Z" fill="#E6E6E6"/>
<path d="M94.0736 112.479H78.9674V114.023H94.0736V112.479Z" fill="#E6E6E6"/>
<path d="M101.767 117.106H78.9674V118.651H101.767V117.106Z" fill="#63E1FF"/>
<path d="M99.5287 121.763H78.9674V123.307H99.5287V121.763Z" fill="#E6E6E6"/>
<path d="M110.718 126.297H78.9674V127.841H110.718V126.297Z" fill="#63E1FF"/>
<path d="M105.174 130.615H79.2975V132.159H105.174V130.615Z" fill="#E6E6E6"/>
<path d="M94.0736 135.352H78.9674V136.897H94.0736V135.352Z" fill="#E6E6E6"/>
<path d="M101.767 139.98H78.9674V141.524H101.767V139.98Z" fill="#E6E6E6"/>
<path d="M171.27 119.83C171.122 120.087 170.926 120.313 170.692 120.494C170.457 120.675 170.189 120.809 169.903 120.886C169.617 120.964 169.319 120.985 169.025 120.948C168.731 120.91 168.447 120.815 168.19 120.668C167.932 120.521 167.707 120.325 167.525 120.091C167.344 119.857 167.21 119.589 167.132 119.303C167.054 119.017 167.034 118.719 167.071 118.425C167.109 118.131 167.204 117.848 167.351 117.591C167.356 117.582 167.361 117.573 167.366 117.564C167.429 117.459 167.5 117.358 167.579 117.263L165.68 103.739L165.623 103.334L165.237 100.574L165.18 100.176L165.391 100.186L169.069 100.354L170.056 100.399L170.179 102.916L170.879 117.07C171.245 117.42 171.482 117.882 171.553 118.382C171.624 118.883 171.524 119.393 171.27 119.83Z" fill="#FFB8B8"/>
<path d="M165.634 103.456L170.305 103.028C170.547 103.005 170.771 102.887 170.927 102.701C171.082 102.514 171.158 102.273 171.137 102.031L170.272 92.3233C170.23 91.8603 170.098 91.41 169.882 90.9981C169.667 90.5862 169.372 90.2208 169.016 89.9227C168.659 89.6245 168.247 89.3995 167.803 89.2606C167.359 89.1216 166.892 89.0713 166.429 89.1127C165.966 89.154 165.515 89.2861 165.103 89.5014C164.691 89.7168 164.325 90.0112 164.027 90.3678C163.728 90.7243 163.503 91.1361 163.364 91.5797C163.225 92.0232 163.175 92.4898 163.216 92.9527C163.222 93.0196 163.23 93.0862 163.24 93.1526L164.641 102.674C164.673 102.892 164.782 103.092 164.949 103.236C165.116 103.38 165.329 103.46 165.55 103.46C165.578 103.461 165.606 103.459 165.634 103.456Z" fill="#63E1FF"/>
<path d="M169.175 95.6138C169.647 94.2765 169.669 92.8214 169.237 91.4704C168.805 90.1194 167.943 88.9467 166.782 88.1309C165.02 86.9265 162.61 86.4942 160.014 89.5824C154.822 95.7589 153.462 102.553 153.462 102.553L164.093 104.282C164.093 104.282 167.708 99.8662 169.175 95.6138Z" fill="#63E1FF"/>
<path d="M151.981 165.187H148.95L147.508 153.504H151.981L151.981 165.187Z" fill="#FFB8B8"/>
<path d="M143.105 167.999H152.631V164.321H146.786C145.81 164.321 144.873 164.709 144.183 165.399C143.493 166.088 143.105 167.024 143.105 167.999Z" fill="#2F2E41"/>
<path d="M176.9 162.545L174.022 163.496L168.984 152.856L173.231 151.452L176.9 162.545Z" fill="#FFB8B8"/>
<path d="M169.355 167.999L178.4 165.012L177.245 161.52L171.695 163.353C171.236 163.504 170.811 163.745 170.445 164.06C170.079 164.376 169.779 164.76 169.562 165.192C169.345 165.623 169.215 166.093 169.179 166.575C169.144 167.057 169.203 167.541 169.355 167.999Z" fill="#2F2E41"/>
<path d="M162.501 85.0677C165.855 85.0677 168.573 82.3509 168.573 78.9996C168.573 75.6484 165.855 72.9316 162.501 72.9316C159.148 72.9316 156.429 75.6484 156.429 78.9996C156.429 82.3509 159.148 85.0677 162.501 85.0677Z" fill="#FFB8B8"/>
<path d="M157.185 161.935L159.999 143.37C160.029 143.172 160.127 142.99 160.277 142.856C160.426 142.722 160.617 142.644 160.817 142.635C161.017 142.627 161.215 142.688 161.375 142.808C161.535 142.929 161.649 143.101 161.696 143.296L165.982 160.988C166.05 161.259 166.216 161.495 166.449 161.65C166.682 161.805 166.964 161.867 167.24 161.824L179.064 159.925C179.22 159.9 179.37 159.842 179.502 159.754C179.635 159.666 179.747 159.551 179.831 159.417C179.915 159.282 179.969 159.131 179.99 158.974C180.011 158.817 179.998 158.657 179.952 158.505L164.535 107.71C164.491 107.565 164.486 107.412 164.52 107.265L165.033 105.041C165.089 104.8 165.063 104.547 164.959 104.323C164.855 104.098 164.678 103.915 164.458 103.803C162.358 102.732 157.041 100.507 153.028 102.944C152.898 103.024 152.785 103.129 152.697 103.253C152.608 103.377 152.546 103.518 152.514 103.667L140.47 160.236C140.438 160.39 140.438 160.549 140.471 160.703C140.504 160.857 140.57 161.002 140.663 161.128C140.757 161.255 140.876 161.36 141.013 161.437C141.15 161.514 141.302 161.561 141.459 161.575L155.985 162.875C156.018 162.878 156.051 162.88 156.084 162.88C156.35 162.879 156.607 162.784 156.809 162.61C157.011 162.437 157.144 162.197 157.184 161.935L157.185 161.935Z" fill="#2F2E41"/>
<path d="M166.528 74.7125C166.07 74.4373 165.664 74.0845 165.327 73.6699C165.161 73.4604 165.052 73.2117 165.01 72.9477C164.968 72.6838 164.995 72.4135 165.087 72.1628C165.394 71.4864 166.306 71.2734 167.012 71.5029C167.719 71.7324 168.265 72.2866 168.781 72.8205C169.235 73.2899 169.703 73.782 169.918 74.3994C170.133 75.0168 170.023 75.7998 169.486 76.1745C168.96 76.5422 168.203 76.3917 167.696 75.9969C167.19 75.6021 166.877 75.0161 166.578 74.4479L166.528 74.7125Z" fill="#2F2E41"/>
<path d="M168.584 72.9835C168.618 71.2739 170.568 70.0477 172.252 70.3509C173.937 70.654 175.231 72.0889 175.879 73.6716C177.248 77.0155 176.221 80.8311 174.901 84.1963C173.582 87.5615 171.949 90.9753 172.142 94.5834C172.272 96.5335 172.927 98.4123 174.037 100.021C175.148 101.63 176.672 102.91 178.45 103.725C176.549 104.586 174.277 103.696 172.68 102.354C169.133 99.3731 167.764 94.066 169.426 89.743C170.246 87.6106 171.692 85.7863 172.82 83.7997C173.948 81.8132 174.776 79.4718 174.194 77.2628C173.611 75.0539 171.132 73.2657 169.012 74.1202L168.584 72.9835Z" fill="#2F2E41"/>
<path d="M162.137 81.6924C162.666 80.7985 163.2 79.625 162.233 78.8435C162.023 78.6814 161.782 78.5629 161.525 78.495C161.268 78.4271 161 78.4112 160.737 78.4482C159.647 78.5797 158.459 78.6338 157.403 78.2377C157.007 78.1016 156.642 77.8872 156.331 77.6075C156.019 77.3278 155.767 76.9884 155.589 76.6094C155.045 75.3187 155.727 73.7504 156.866 72.9346C157.563 72.4537 158.387 72.1891 159.234 72.1741C160.081 72.1591 160.914 72.3944 161.627 72.8504C163.103 72.1989 164.894 72.4887 166.235 73.3855C167.576 74.2823 168.493 75.7185 168.992 77.252C169.451 78.5719 169.53 79.9942 169.22 81.3569C168.97 82.3048 168.496 83.1787 167.837 83.9046C167.178 84.6305 166.353 85.187 165.433 85.527C165.075 85.6682 164.686 85.7129 164.305 85.6565C163.924 85.6001 163.564 85.4447 163.262 85.2058C163.262 85.2058 162.425 84.4757 162.164 83.5964C161.962 82.9202 161.855 82.1699 162.137 81.6924Z" fill="#2F2E41"/>
<path d="M144.124 87.1069C144.154 87.2402 144.174 87.3757 144.183 87.5121L154.803 93.6347L157.384 92.1496L160.136 95.7497L155.822 98.8226C155.473 99.071 155.054 99.1996 154.626 99.1892C154.198 99.1787 153.785 99.0298 153.449 98.7648L142.497 90.1311C142.002 90.3141 141.464 90.3424 140.953 90.2121C140.442 90.0818 139.983 89.7992 139.637 89.4018C139.291 89.0044 139.074 88.5111 139.015 87.9876C138.956 87.464 139.059 86.935 139.308 86.4709C139.558 86.0068 139.943 85.6296 140.412 85.3895C140.881 85.1494 141.412 85.0577 141.935 85.1268C142.458 85.1958 142.947 85.4223 143.338 85.776C143.728 86.1297 144.002 86.5939 144.122 87.1069H144.124Z" fill="#FFB8B8"/>
<path d="M155.158 93.9247L158.591 98.3703C158.688 98.4966 158.812 98.6004 158.953 98.6747C159.095 98.749 159.251 98.792 159.41 98.8007C159.57 98.8095 159.729 98.7838 159.878 98.7254C160.027 98.667 160.161 98.5773 160.272 98.4624L164.157 94.4302C164.815 93.9412 165.251 93.2112 165.37 92.4008C165.489 91.5905 165.281 90.7661 164.792 90.109C164.302 89.4519 163.572 89.016 162.761 88.8972C161.95 88.7784 161.125 88.9863 160.467 89.4753C160.434 89.5003 160.401 89.5259 160.368 89.5523L155.495 92.2754C155.355 92.3534 155.234 92.4605 155.14 92.5895C155.046 92.7185 154.98 92.8663 154.948 93.0228C154.916 93.1793 154.918 93.3409 154.954 93.4966C154.991 93.6522 155.06 93.7982 155.157 93.9247L155.158 93.9247Z" fill="#63E1FF"/>
<path d="M30.582 104.52C30.4607 104.575 30.3441 104.64 30.2332 104.714L19.1447 99.9848L18.7491 97.0658L14.3183 97.0386L14.5802 103.734L29.2159 107.602C29.2467 107.704 29.2837 107.804 29.3266 107.901C29.5382 108.352 29.8786 108.731 30.3048 108.989C30.7311 109.248 31.2243 109.375 31.7226 109.354C32.2208 109.334 32.7018 109.166 33.1052 108.873C33.5087 108.58 33.8165 108.175 33.99 107.708C34.1636 107.241 34.1951 106.733 34.0807 106.248C33.9662 105.762 33.711 105.322 33.3469 104.982C32.9828 104.641 32.5261 104.416 32.0343 104.334C31.5424 104.252 31.0373 104.317 30.5823 104.521L30.582 104.52Z" fill="#A0616A"/>
<path d="M12.707 165.187H15.7379L17.1797 153.504H12.7065L12.707 165.187Z" fill="#A0616A"/>
<path d="M17.9029 164.322H12.0575V167.999H21.5833C21.5833 167.023 21.1955 166.088 20.5053 165.398C19.8151 164.708 18.879 164.321 17.9029 164.321H17.9028L17.9029 164.322Z" fill="#2F2E41"/>
<path d="M0.91925 164.331L3.9354 164.628L6.51667 153.143L2.06489 152.706L0.91925 164.331Z" fill="#A0616A"/>
<path d="M6.17682 163.98L0.360667 163.407L-1.52588e-05 167.067L9.47793 168C9.52529 167.519 9.47748 167.034 9.3372 166.572C9.19693 166.11 8.96695 165.68 8.66039 165.306C8.35383 164.933 7.9767 164.624 7.55053 164.396C7.12435 164.169 6.65749 164.027 6.17658 163.98L6.17682 163.98Z" fill="#2F2E41"/>
<path d="M11.8632 84.6743C15.2167 84.6743 17.9353 81.9576 17.9353 78.6063C17.9353 75.2551 15.2167 72.5383 11.8632 72.5383C8.50964 72.5383 5.79108 75.2551 5.79108 78.6063C5.79108 81.9576 8.50964 84.6743 11.8632 84.6743Z" fill="#A0616A"/>
<path d="M16.4153 162.825C16.6759 162.825 16.9283 162.734 17.128 162.567C17.3277 162.399 17.4619 162.167 17.5068 161.91C19.0745 153.209 24.2036 124.753 24.3263 123.964C24.329 123.946 24.3303 123.928 24.3302 123.909V121.787C24.3304 121.71 24.3063 121.635 24.2613 121.572L23.5839 120.624C23.5517 120.578 23.5094 120.541 23.4604 120.514C23.4114 120.487 23.3568 120.472 23.301 120.469C19.4389 120.289 6.79036 119.758 6.17922 120.521C5.56561 121.287 5.78366 123.611 5.8331 124.069L5.83063 124.116L0.148169 160.434C0.103656 160.724 0.175072 161.019 0.34696 161.257C0.518849 161.494 0.777382 161.654 1.06661 161.703L4.61577 162.287C4.8801 162.329 5.15088 162.276 5.37887 162.135C5.60686 161.995 5.7769 161.778 5.85808 161.523C6.95576 158.018 10.6367 146.225 11.9124 141.663C11.9205 141.634 11.9388 141.609 11.9639 141.593C11.9889 141.576 12.019 141.57 12.0486 141.574C12.0782 141.578 12.1053 141.593 12.1248 141.616C12.1444 141.638 12.155 141.667 12.1549 141.697C12.0911 146.047 11.9371 157.144 11.8829 160.977L11.8773 161.389C11.8749 161.669 11.9776 161.939 12.1649 162.147C12.3523 162.354 12.6107 162.484 12.8892 162.51L16.3115 162.82C16.346 162.823 16.3807 162.825 16.4153 162.825Z" fill="#2F2E41"/>
<path d="M15.7169 87.0604C16.7765 87.6899 17.4106 88.8467 17.7746 90.0251C18.4482 92.2045 18.8536 94.4577 18.982 96.735L19.3667 103.554L24.127 121.631C20.0011 125.12 17.6213 124.327 12.0671 121.473C6.51297 118.62 5.87859 122.425 5.87859 122.425L4.76805 107.043L3.18137 90.2354C3.53759 89.8068 3.94078 89.4195 4.38337 89.0806C5.84997 87.9407 7.55634 87.1483 9.37389 86.7632C11.1914 86.378 13.0728 86.4101 14.8761 86.8571L15.7169 87.0604Z" fill="#E6E6E6"/>
<path d="M17.263 108.171C17.1351 108.218 17.0111 108.276 16.8922 108.344L5.92777 102.859L5.74582 99.8877L1.22308 99.5762L0.980804 106.349L15.6328 111.191C15.7524 111.704 16.0254 112.169 16.4156 112.523C16.8059 112.877 17.2948 113.104 17.8173 113.174C18.3398 113.244 18.8712 113.153 19.3408 112.914C19.8104 112.674 20.1959 112.297 20.446 111.834C20.6961 111.37 20.799 110.841 20.741 110.317C20.683 109.794 20.4668 109.3 20.1213 108.902C19.7757 108.505 19.3171 108.221 18.8064 108.09C18.2958 107.959 17.7574 107.987 17.2628 108.169L17.263 108.171Z" fill="#A0616A"/>
<path d="M3.26047 90.3109C0.562999 91.2624 0.0875854 101.57 0.0875854 101.57C3.26121 99.8262 7.06946 102.68 7.06946 102.68C7.06946 102.68 7.86281 99.9845 8.81487 96.4961C9.10236 95.5148 9.13675 94.4768 8.91482 93.4787C8.6929 92.4806 8.22188 91.5548 7.54562 90.7875C7.54562 90.7875 5.9582 89.359 3.26047 90.3109Z" fill="#E6E6E6"/>
<path d="M6.41977 80.2112C7.17628 79.6064 8.20844 80.7054 8.20844 80.7054L8.81365 75.2624C8.81365 75.2624 12.5962 75.7153 15.0175 75.1112C17.4388 74.5072 17.8168 77.3039 17.8168 77.3039C17.9417 76.1742 17.967 75.0357 17.8925 73.9016C17.7412 72.5408 15.7743 71.1798 12.2941 70.2726C8.8139 69.3654 6.99828 73.2968 6.99828 73.2968C4.57598 74.5062 5.66228 80.816 6.41977 80.2112Z" fill="#2F2E41"/>
</g>
<defs>
<clipPath id="clip0_1_12">
<rect width="180" height="168" fill="white"/>
</clipPath>
</defs>
</svg>
