<svg width="156" height="186" viewBox="0 0 156 186" fill="none" xmlns="http://www.w3.org/2000/svg">
<g clip-path="url(#clip0_1_296)">
<path d="M92.8399 44.2006H91.8168V16.2038C91.8168 11.9063 90.1079 7.78479 87.066 4.746C84.0241 1.7072 79.8983 2.00036e-05 75.5964 1.52588e-05H16.2205C11.9185 5.09152e-06 7.79281 1.70717 4.75089 4.74596C1.70896 7.78475 1.15348e-05 11.9062 0 16.2037V169.796C-2.03555e-06 174.094 1.70893 178.215 4.75085 181.254C7.79276 184.293 11.9185 186 16.2204 186H75.5964C79.8983 186 84.024 184.293 87.0659 181.254C90.1079 178.215 91.8168 174.094 91.8168 169.796V64.1291H92.8399L92.8399 44.2006Z" fill="#3F3D56"/>
<path d="M88.3648 16.3167V169.683C88.3651 172.604 87.3078 175.427 85.3879 177.63C83.468 179.833 80.8152 181.268 77.9191 181.67C77.3664 181.747 76.809 181.785 76.251 181.785H16.5877C16.0297 181.785 15.4723 181.747 14.9196 181.67C12.024 181.267 9.37176 179.832 7.45239 177.629C5.53302 175.426 4.47602 172.604 4.47644 169.683V16.3167C4.4765 13.1073 5.7528 10.0293 8.02456 7.75986C10.2963 5.49043 13.3775 4.21545 16.5902 4.21539H23.8278C23.4708 5.08836 23.3344 6.03568 23.4305 6.97379C23.5266 7.91189 23.8523 8.81196 24.3789 9.5946C24.9055 10.3772 25.6168 11.0184 26.45 11.4615C27.2833 11.9047 28.2129 12.1362 29.1569 12.1356H63.1727C64.1166 12.1361 65.0461 11.9045 65.8792 11.4613C66.7123 11.0181 67.4234 10.3768 67.9498 9.59415C68.4762 8.81147 68.8016 7.91141 68.8974 6.97337C68.9932 6.03533 68.8565 5.08815 68.4992 4.21539H76.251C79.4638 4.21546 82.5449 5.49044 84.8167 7.75987C87.0885 10.0293 88.3648 13.1073 88.3648 16.3167Z" fill="white"/>
<path d="M88.3648 130.811V169.683C88.3651 172.604 87.3078 175.427 85.3879 177.63C83.468 179.833 80.8152 181.268 77.9191 181.67H14.9196C12.024 181.267 9.37176 179.832 7.45239 177.629C5.53302 175.426 4.47602 172.604 4.47644 169.683V130.811H88.3648Z" fill="#E6E6E6"/>
<path d="M46.4207 164.245C50.846 164.245 54.4334 160.661 54.4334 156.24C54.4334 151.819 50.846 148.236 46.4207 148.236C41.9953 148.236 38.4079 151.819 38.4079 156.24C38.4079 160.661 41.9953 164.245 46.4207 164.245Z" fill="white"/>
<path d="M51.2282 156.24H46.9015V151.918H45.9398V156.24H41.6129V157.201H45.9398V161.523H46.9015V157.201H51.2282V156.24Z" fill="#E6E6E6"/>
<path d="M60.6484 105.919V113.108L56.9528 117.383C56.9528 117.383 55.3967 116.8 55.3967 112.914L54.8132 107.279L60.6484 105.919Z" fill="#FFB9B9"/>
<path d="M56.9527 113.108C56.9527 113.108 62.9825 109.028 63.177 107.668C63.3715 106.307 68.9602 100.185 70.5684 103.976C72.086 107.554 65.946 110.62 65.946 110.62C65.946 110.62 61.621 118.549 58.7033 118.355C55.7857 118.16 55.7857 114.468 56.9527 113.108Z" fill="#FFB9B9"/>
<path d="M53.4517 156.828L52.8681 160.325L55.9803 159.548V156.828H53.4517Z" fill="#FFB9B9"/>
<path d="M54.0351 158.771C54.0351 158.771 57.6321 156.642 57.7787 157.609C57.9253 158.576 59.4814 162.268 60.2594 162.657C61.0374 163.046 62.01 167.32 60.2594 167.126C58.9036 166.976 53.9307 164.377 51.7569 163.213C51.4894 163.069 51.2873 162.828 51.1923 162.54C51.0972 162.251 51.1166 161.937 51.2462 161.663C51.3737 161.427 51.4617 161.172 51.5065 160.908C51.5065 160.52 54.0351 158.771 54.0351 158.771Z" fill="#2F2E41"/>
<path d="M52.2845 119.326C52.2845 119.326 66.4836 125.933 65.1221 130.985C63.7605 136.037 58.7033 157.411 58.7033 157.411C58.7033 157.411 53.0625 158.771 52.6735 157.411C52.2845 156.05 56.3692 134.871 55.9802 134.094C55.5911 133.316 48.3943 128.264 48.3943 128.264L33.6117 122.046L39.836 116.217L52.2845 119.326Z" fill="#2F2E41"/>
<path d="M62.9825 157.994L64.7332 162.463L61.621 163.823L59.6758 160.325L62.9825 157.994Z" fill="#FFB9B9"/>
<path d="M52.4791 87.4594C52.4791 87.4594 50.7285 89.7911 52.0901 90.957C53.4516 92.1228 52.4791 96.3976 52.4791 96.3976L50.7285 101.255L43.7262 99.8952V91.9285L44.1152 88.0424C44.1152 88.0424 47.6164 84.7391 48.0054 82.2131C48.3944 79.6871 52.4791 87.4594 52.4791 87.4594Z" fill="#FFB9B9"/>
<path d="M40.8085 117.772C40.8085 117.772 49.9504 127.876 49.9504 128.264C49.9504 128.653 54.8131 136.62 54.8131 136.62L64.344 157.799C64.344 157.799 60.6484 162.851 59.0923 162.463C57.5362 162.074 46.4492 139.534 46.4492 139.534C46.4492 139.534 44.5042 134.482 39.2524 133.316C34.0007 132.15 29.916 128.07 31.8611 123.407C33.8062 118.743 40.8085 117.772 40.8085 117.772Z" fill="#2F2E41"/>
<path d="M52.479 88.8196C55.9166 88.8196 58.7033 86.0358 58.7033 82.6017C58.7033 79.1677 55.9166 76.3839 52.479 76.3839C49.0415 76.3839 46.2548 79.1677 46.2548 82.6017C46.2548 86.0358 49.0415 88.8196 52.479 88.8196Z" fill="#FFB9B9"/>
<path d="M52.2845 92.7058C52.2845 92.7058 51.5065 97.1749 50.7285 97.5635C49.9504 97.9521 49.3669 99.3123 47.6163 97.3692C45.8658 95.4261 44.3097 91.5399 44.3097 91.5399L38.2799 98.9237L37.6964 119.326C37.6964 119.326 44.5042 117.577 46.6438 119.326C48.7834 121.075 53.4516 120.881 53.4516 120.881L52.4791 116.994L53.2571 110.388L53.0626 104.364L52.8681 100.09L52.2845 92.7058Z" fill="#63FFFB"/>
<path d="M51.5994 89.4352C51.5994 89.4352 54.2297 90.7627 54.4242 91.5399C54.6187 92.3172 58.1198 93.8716 58.1198 93.8716C58.1198 93.8716 59.4814 95.2318 59.4814 96.009C59.4814 96.7863 54.8132 105.724 54.8132 105.724C54.8132 105.724 53.8406 111.748 54.2296 112.914C54.6186 114.08 53.4516 118.549 53.4516 118.549L55.7857 121.269H53.6461C53.6461 121.269 51.312 120.103 51.312 119.52C51.312 118.937 51.701 114.857 51.8955 113.108C52.09 111.359 52.09 105.142 51.701 103.004C51.312 100.867 51.5065 95.2318 51.5065 93.8716C51.5065 92.5115 51.5994 89.4352 51.5994 89.4352Z" fill="#3F3D56"/>
<path d="M45.574 86.4847C45.574 86.4847 44.6987 86.6822 42.1701 87.4595C39.6415 88.2367 35.7513 89.4025 34.3897 90.957C33.434 92.1066 32.5875 93.3426 31.8611 94.6489L32.6391 108.639C32.6391 108.639 31.0831 111.554 31.2776 113.108C31.4721 114.663 33.0282 114.857 31.8611 118.16C30.6941 121.463 28.36 124.378 30.4996 124.767C32.6392 125.155 38.2799 123.795 40.8085 124.572C43.3371 125.35 46.2548 121.658 46.2548 121.658C46.2548 121.658 42.3646 122.046 42.9481 120.492C43.5316 118.937 49.9504 101.45 48.5889 97.5635C47.2273 93.6774 45.574 86.4847 45.574 86.4847Z" fill="#3F3D56"/>
<path d="M58.5088 95.0375L59.4813 95.8148C59.4813 95.8148 62.2045 105.53 61.4264 106.502C60.6484 107.473 54.4241 109.611 54.0351 108.25C53.6461 106.89 58.5088 95.0375 58.5088 95.0375Z" fill="#3F3D56"/>
<path d="M29.7215 101.838C29.7215 101.838 26.8039 110.194 26.8039 112.525C26.8039 114.857 27.1929 128.459 27.1929 128.459C27.1929 128.459 29.138 136.623 33.2227 134.291C37.3074 131.96 31.4721 128.07 31.4721 128.07C31.4721 128.07 31.6666 112.72 33.2227 110.582C34.7788 108.445 35.3623 105.336 35.3623 105.336L29.7215 101.838Z" fill="#FFB9B9"/>
<path d="M61.621 162.268C61.621 162.268 64.5386 160.714 65.1221 161.88C65.7056 163.046 68.8178 169.458 68.4288 170.235C68.0397 171.012 65.9001 174.121 63.3715 173.344C60.8429 172.567 60.6484 168.486 60.6484 168.486L60.4539 163.823L61.621 162.268Z" fill="#2F2E41"/>
<path d="M53.6979 81.0998C53.2691 81.3014 52.7605 81.4218 52.491 81.8113C52.2914 82.0999 52.2716 82.4749 52.1259 82.794C51.9669 83.1101 51.6933 83.3536 51.3607 83.4751C51.0282 83.5966 50.6618 83.5868 50.3363 83.4478C50.2567 83.0608 50.0314 82.719 49.7069 82.4931C49.543 82.3854 49.3489 82.333 49.153 82.3438C48.9571 82.3545 48.7698 82.4278 48.6187 82.5527C48.2178 82.9346 48.3597 83.6004 48.1726 84.1212C47.997 84.4876 47.7554 84.8186 47.4598 85.0976C47.0341 85.5883 46.6949 86.1638 46.1822 86.563C45.6695 86.9622 44.892 87.1352 44.3827 86.7318C43.9544 86.3925 43.8656 85.7667 43.9696 85.2306C44.0736 84.6946 44.3316 84.2009 44.477 83.6746C44.9497 81.9644 44.1961 80.1385 44.4293 78.3796C44.7281 76.1259 46.6456 74.3457 48.7859 73.5731C49.6765 73.2108 50.6516 73.1076 51.5985 73.2754C52.5773 73.4937 53.4135 74.1162 54.351 74.4723C55.3535 74.853 56.4436 74.9195 57.4927 75.1421C58.5418 75.3646 59.6214 75.795 60.2302 76.6771C60.6548 77.2923 60.8008 78.0563 61.1527 78.7157C61.5577 79.4684 62.2139 80.0557 63.0072 80.3755L61.8982 80.3124C62.0841 80.8069 62.3873 81.2489 62.7818 81.6007C62.2617 81.7066 61.7212 81.6352 61.2465 81.3979C61.2551 81.6257 61.3103 81.8492 61.4088 82.0547C61.5072 82.2603 61.6468 82.4435 61.8189 82.5931C60.9656 82.5674 60.0656 82.5281 59.3446 82.0715C58.9914 81.8478 58.7033 81.5362 58.371 81.2827C57.6625 80.7423 56.7836 80.4858 55.9267 80.2401C55.4768 80.1111 54.9353 79.9317 54.5284 80.2208C54.1895 80.4615 54.136 80.8937 53.6979 81.0998Z" fill="#2F2E41"/>
<path d="M34.7788 92.3172L31.8611 94.6489L27.9709 103.587C27.9709 103.587 33.4172 107.862 34.7788 107.279C36.1403 106.696 38.4744 96.3977 38.4744 96.3977L34.7788 92.3172Z" fill="#3F3D56"/>
<path d="M72.2991 105.766C72.3391 105.718 72.3384 105.652 72.2975 105.618C72.2567 105.584 72.1912 105.595 72.1512 105.643C72.1113 105.691 72.112 105.757 72.1528 105.791C72.1936 105.825 72.2591 105.814 72.2991 105.766Z" fill="#F2F2F2"/>
<path d="M69.4885 88.5783C69.1537 88.5786 68.8327 88.7117 68.5959 88.9482C68.3591 89.1847 68.2259 89.5054 68.2256 89.8399V110.965C68.2259 111.299 68.3591 111.62 68.5959 111.857C68.8326 112.093 69.1537 112.226 69.4885 112.227H154.737C155.072 112.226 155.393 112.093 155.63 111.857C155.867 111.62 156 111.299 156 110.965V89.8399C156 89.5054 155.867 89.1847 155.63 88.9482C155.393 88.7117 155.072 88.5786 154.737 88.5783H69.4885Z" fill="white"/>
<path d="M69.4885 88.5783C69.1537 88.5786 68.8327 88.7117 68.5959 88.9482C68.3591 89.1847 68.2259 89.5054 68.2256 89.8399V110.965C68.2259 111.299 68.3591 111.62 68.5959 111.857C68.8326 112.093 69.1537 112.226 69.4885 112.227H154.737C155.072 112.226 155.393 112.093 155.63 111.857C155.867 111.62 156 111.299 156 110.965V89.8399C156 89.5054 155.867 89.1847 155.63 88.9482C155.393 88.7117 155.072 88.5786 154.737 88.5783H69.4885Z" fill="#E6E6E6"/>
<path d="M69.6464 110.807H154.579V89.9977H69.6464V110.807Z" fill="white"/>
<path d="M80.5392 107.026C84.2011 107.026 87.1697 104.06 87.1697 100.402C87.1697 96.7442 84.2011 93.7787 80.5392 93.7787C76.8773 93.7787 73.9088 96.7442 73.9088 100.402C73.9088 104.06 76.8773 107.026 80.5392 107.026Z" fill="#63FFFB"/>
<path d="M95.8524 95.9866C95.5596 95.987 95.279 96.1035 95.0721 96.3105C94.8652 96.5175 94.749 96.798 94.749 97.0905C94.749 97.383 94.8652 97.6635 95.0721 97.8705C95.279 98.0775 95.5596 98.194 95.8524 98.1945H147.949C148.242 98.1945 148.523 98.0781 148.73 97.8711C148.937 97.6641 149.054 97.3833 149.054 97.0905C149.054 96.7977 148.937 96.5169 148.73 96.3099C148.523 96.1029 148.242 95.9866 147.949 95.9866H95.8524Z" fill="#E6E6E6"/>
<path d="M95.8524 102.61C95.5596 102.611 95.279 102.727 95.0721 102.934C94.8652 103.141 94.749 103.422 94.749 103.714C94.749 104.007 94.8652 104.287 95.0721 104.494C95.279 104.701 95.5596 104.818 95.8524 104.818H147.949C148.242 104.818 148.523 104.702 148.73 104.495C148.937 104.288 149.054 104.007 149.054 103.714C149.054 103.421 148.937 103.141 148.73 102.934C148.523 102.727 148.242 102.61 147.949 102.61H95.8524Z" fill="#E6E6E6"/>
<path d="M14.9205 24.7481C14.6734 24.7483 14.4365 24.8465 14.2618 25.0211C14.0871 25.1956 13.9888 25.4323 13.9885 25.6791V41.2685C13.9888 41.5154 14.0871 41.7521 14.2618 41.9266C14.4365 42.1012 14.6734 42.1994 14.9205 42.1997H77.8311C78.0782 42.1994 78.3151 42.1012 78.4898 41.9266C78.6646 41.7521 78.7628 41.5154 78.7631 41.2685V25.6791C78.7628 25.4323 78.6645 25.1956 78.4898 25.0211C78.3151 24.8465 78.0782 24.7483 77.8311 24.7481H14.9205Z" fill="white"/>
<path d="M14.9205 24.7481C14.6734 24.7483 14.4365 24.8465 14.2618 25.0211C14.0871 25.1956 13.9888 25.4323 13.9885 25.6791V41.2685C13.9888 41.5154 14.0871 41.7521 14.2618 41.9266C14.4365 42.1012 14.6734 42.1994 14.9205 42.1997H77.8311C78.0782 42.1994 78.3151 42.1012 78.4898 41.9266C78.6646 41.7521 78.7628 41.5154 78.7631 41.2685V25.6791C78.7628 25.4323 78.6645 25.1956 78.4898 25.0211C78.3151 24.8465 78.0782 24.7483 77.8311 24.7481H14.9205Z" fill="#E6E6E6"/>
<path d="M15.037 41.1522H77.7145V25.7955H15.037V41.1522Z" fill="white"/>
<path d="M23.0756 38.3618C25.7779 38.3618 27.9686 36.1734 27.9686 33.4738C27.9686 30.7743 25.7779 28.5858 23.0756 28.5858C20.3732 28.5858 18.1826 30.7743 18.1826 33.4738C18.1826 36.1734 20.3732 38.3618 23.0756 38.3618Z" fill="#63FFFB"/>
<path d="M34.3761 30.2152C34.1598 30.2152 33.9524 30.301 33.7995 30.4538C33.6465 30.6066 33.5606 30.8138 33.5606 31.0298C33.5606 31.2459 33.6465 31.4531 33.7995 31.6059C33.9524 31.7587 34.1598 31.8445 34.3761 31.8445H72.8214C73.0377 31.8445 73.2452 31.7587 73.3981 31.6059C73.551 31.4531 73.6369 31.2459 73.6369 31.0298C73.6369 30.8138 73.551 30.6066 73.3981 30.4538C73.2452 30.301 73.0377 30.2152 72.8214 30.2152H34.3761Z" fill="#E6E6E6"/>
<path d="M34.3762 35.1032C34.1602 35.1036 33.9531 35.1896 33.8005 35.3423C33.6479 35.495 33.5621 35.702 33.5621 35.9179C33.5621 36.1337 33.6479 36.3407 33.8005 36.4934C33.9531 36.6461 34.1602 36.7321 34.3762 36.7325H72.8215C72.9287 36.7327 73.0349 36.7118 73.1341 36.6709C73.2332 36.6301 73.3232 36.5701 73.3991 36.4944C73.475 36.4188 73.5352 36.3289 73.5763 36.23C73.6173 36.131 73.6385 36.025 73.6385 35.9179C73.6385 35.8107 73.6173 35.7047 73.5763 35.6058C73.5352 35.5068 73.475 35.4169 73.3991 35.3413C73.3232 35.2656 73.2332 35.2056 73.1341 35.1648C73.0349 35.1239 72.9287 35.103 72.8215 35.1032H34.3762Z" fill="#E6E6E6"/>
<path d="M14.9205 52.6055C14.6734 52.6057 14.4365 52.7039 14.2618 52.8784C14.0871 53.053 13.9888 53.2897 13.9885 53.5365V69.1259C13.9888 69.3728 14.0871 69.6095 14.2618 69.784C14.4365 69.9586 14.6734 70.0568 14.9205 70.0571H77.8311C78.0782 70.0568 78.3151 69.9586 78.4898 69.784C78.6646 69.6095 78.7628 69.3728 78.7631 69.1259V53.5365C78.7628 53.2897 78.6645 53.053 78.4898 52.8784C78.3151 52.7039 78.0782 52.6057 77.8311 52.6055H14.9205Z" fill="white"/>
<path d="M14.9205 52.6055C14.6734 52.6057 14.4365 52.7039 14.2618 52.8784C14.0871 53.053 13.9888 53.2897 13.9885 53.5365V69.1259C13.9888 69.3728 14.0871 69.6095 14.2618 69.784C14.4365 69.9586 14.6734 70.0568 14.9205 70.0571H77.8311C78.0782 70.0568 78.3151 69.9586 78.4898 69.784C78.6646 69.6095 78.7628 69.3728 78.7631 69.1259V53.5365C78.7628 53.2897 78.6645 53.053 78.4898 52.8784C78.3151 52.7039 78.0782 52.6057 77.8311 52.6055H14.9205Z" fill="#E6E6E6"/>
<path d="M15.037 69.0096H77.7145V53.6529H15.037V69.0096Z" fill="white"/>
<path d="M23.0756 66.2192C25.7779 66.2192 27.9686 64.0308 27.9686 61.3312C27.9686 58.6317 25.7779 56.4432 23.0756 56.4432C20.3732 56.4432 18.1826 58.6317 18.1826 61.3312C18.1826 64.0308 20.3732 66.2192 23.0756 66.2192Z" fill="#63FFFB"/>
<path d="M34.3761 58.0726C34.1598 58.0726 33.9524 58.1584 33.7995 58.3112C33.6465 58.464 33.5606 58.6712 33.5606 58.8872C33.5606 59.1033 33.6465 59.3105 33.7995 59.4633C33.9524 59.6161 34.1598 59.7019 34.3761 59.7019H72.8214C73.0377 59.7019 73.2452 59.6161 73.3981 59.4633C73.551 59.3105 73.6369 59.1033 73.6369 58.8872C73.6369 58.6712 73.551 58.464 73.3981 58.3112C73.2452 58.1584 73.0377 58.0726 72.8214 58.0726H34.3761Z" fill="#E6E6E6"/>
<path d="M34.3762 62.9606C34.1602 62.961 33.9531 63.047 33.8005 63.1997C33.6479 63.3524 33.5621 63.5594 33.5621 63.7752C33.5621 63.9911 33.6479 64.1981 33.8005 64.3508C33.9531 64.5035 34.1602 64.5895 34.3762 64.5899H72.8215C73.0378 64.5899 73.2453 64.5041 73.3982 64.3513C73.5511 64.1985 73.637 63.9913 73.637 63.7752C73.637 63.5592 73.5511 63.352 73.3982 63.1992C73.2453 63.0464 73.0378 62.9606 72.8215 62.9606H34.3762Z" fill="#E6E6E6"/>
</g>
<defs>
<clipPath id="clip0_1_296">
<rect width="156" height="186" fill="white"/>
</clipPath>
</defs>
</svg>
